<?xml version="1.0" standalone="no"?>
<!DOCTYPE svg PUBLIC "-//W3C//DTD SVG 20010904//EN"
 "http://www.w3.org/TR/2001/REC-SVG-20010904/DTD/svg10.dtd">
<svg version="1.0" xmlns="http://www.w3.org/2000/svg"
 width="512.000000pt" height="512.000000pt" viewBox="0 0 512.000000 512.000000"
 preserveAspectRatio="xMidYMid meet">

<g transform="translate(0.000000,512.000000) scale(0.100000,-0.100000)"
fill="#000000" stroke="none">
<path d="M1592 5101 c-108 -37 -180 -130 -189 -244 -18 -224 228 -376 423
-262 87 51 134 139 134 249 0 80 -32 149 -95 204 -79 69 -173 88 -273 53z
m154 -130 c144 -65 92 -281 -67 -281 -62 0 -108 32 -133 92 -23 56 -16 104 21
149 49 58 109 72 179 40z"/>
<path d="M2904 5102 c-162 -58 -236 -240 -159 -392 135 -263 528 -166 529 130
1 189 -193 326 -370 262z m177 -143 c88 -63 80 -208 -15 -253 -105 -50 -218
17 -218 128 0 68 38 123 102 149 27 11 101 -2 131 -24z"/>
<path d="M3985 4685 c-22 -21 -25 -33 -25 -90 l0 -65 -68 0 c-76 0 -102 -16
-102 -61 0 -48 22 -63 99 -67 l71 -4 0 -64 c0 -74 20 -104 69 -104 43 0 61 31
61 107 l0 63 64 0 c74 0 109 20 109 63 0 50 -28 67 -105 67 l-68 0 0 69 c0 63
-2 71 -26 90 -34 27 -50 26 -79 -4z"/>
<path d="M2247 4446 c-48 -18 -108 -59 -125 -86 -10 -16 -23 -20 -70 -20 -159
0 -519 -47 -697 -92 -252 -62 -428 -157 -480 -259 -10 -18 -17 -54 -16 -83 0
-28 72 -813 160 -1744 124 -1304 164 -1700 177 -1727 23 -50 51 -69 167 -113
178 -69 410 -127 607 -152 222 -28 528 -22 739 15 l74 13 60 -45 c139 -102
281 -148 457 -147 227 1 412 81 563 243 138 149 221 379 203 558 -21 201 -205
534 -487 879 l-58 71 14 139 c46 457 186 1977 187 2015 0 26 -8 61 -17 78 -85
166 -461 293 -1009 341 -119 11 -119 11 -162 49 -23 22 -57 47 -75 57 -45 23
-162 29 -212 10z m163 -135 c42 -22 80 -83 80 -129 0 -86 -80 -159 -166 -149
-106 12 -165 120 -116 217 37 73 128 101 202 61z m-350 -148 c1 -89 67 -190
155 -235 55 -29 149 -35 212 -14 101 34 179 133 190 241 l6 53 36 -4 c420 -45
631 -90 798 -171 66 -32 143 -98 143 -123 0 -28 -72 -87 -155 -126 -518 -245
-1856 -237 -2338 13 -62 33 -127 90 -127 113 0 23 75 90 132 118 183 90 597
174 891 181 l57 1 0 -47z m-997 -489 c78 -40 237 -91 370 -119 680 -144 1681
-86 2090 122 27 13 50 23 51 21 2 -2 -21 -252 -50 -555 -60 -628 -43 -562
-171 -683 -184 -176 -383 -260 -587 -247 -167 10 -320 76 -511 219 -131 99
-200 137 -321 177 -224 75 -466 61 -699 -41 -116 -51 -119 -51 -123 -8 -2 19
-27 284 -55 588 -29 303 -51 552 -50 552 2 0 27 -12 56 -26z m782 -1178 c124
-36 218 -84 332 -170 122 -91 217 -146 313 -185 307 -121 633 -58 908 177 40
34 53 41 49 27 -3 -11 -13 -112 -23 -225 -9 -113 -19 -207 -20 -209 -2 -2 -22
13 -44 33 -22 20 -50 36 -62 36 -29 0 -113 -88 -267 -280 -249 -310 -385 -526
-462 -735 -30 -82 -33 -100 -33 -205 0 -79 5 -135 17 -180 19 -70 74 -194 107
-240 l20 -27 -50 -7 c-372 -49 -767 -13 -1120 104 -147 49 -190 67 -196 85 -3
8 -45 430 -93 937 l-88 923 31 33 c40 43 172 108 256 127 104 23 312 14 425
-19z m1540 -781 c201 -234 374 -483 465 -668 70 -142 94 -235 85 -327 -29
-299 -244 -529 -540 -578 -86 -14 -104 -14 -192 0 -271 45 -481 252 -529 521
-25 136 -3 235 90 412 93 177 245 394 422 604 43 51 85 102 93 113 8 10 17 17
21 16 5 -2 43 -43 85 -93z"/>
<path d="M2905 818 c-27 -21 -27 -24 -22 -91 14 -165 131 -307 295 -357 93
-29 145 -27 171 6 26 33 26 45 1 76 -14 19 -32 27 -70 31 -144 17 -250 121
-266 262 -5 43 -13 60 -32 75 -31 25 -43 25 -77 -2z"/>
</g>
</svg>
